{
  "accessors": [
    {
      "bufferView": 2,
      "componentType": 5126,
      "count": 23651,
      "max": [
        0.5632674694061279,
        0.9752532839775085,
        2.292041778564453
      ],
      "min": [
        -0.5632122755050659,
        -1.0101714134216309,
        -2.3897016048431396
      ],
      "type": "VEC3"
    },
    {
      "bufferView": 2,
      "byteOffset": 283812,
      "componentType": 5126,
      "count": 23651,
      "max": [
        0.9998092651367188,
        0.9999967813491821,
        0.9992235898971558
      ],
      "min": [
        -0.9998092651367188,
        -0.9999996423721313,
        -0.9994759559631348
      ],
      "type": "VEC3"
    },
    {
      "bufferView": 3,
      "componentType": 5126,
      "count": 23651,
      "max": [
        0.9999999403953552,
        0.9999895095825195,
        0.9998578429222107,
        1.0
      ],
      "min": [
        -0.9999998807907104,
        -0.999936044216156,
        -0.9999637603759766,
        -1.0
      ],
      "type": "VEC4"
    },
    {
      "bufferView": 1,
      "componentType": 5126,
      "count": 23651,
      "max": [
        0.9959574341773987,
        0.9892908334732056
      ],
      "min": [
        0.007985562086105347,
        0.0074214935302734375
      ],
      "type": "VEC2"
    },
    {
      "bufferView": 1,
      "byteOffset": 189208,
      "componentType": 5126,
      "count": 23651,
      "max": [
        0.9959574341773987,
        0.9892908334732056
      ],
      "min": [
        0.007985562086105347,
        0.0074214935302734375
      ],
      "type": "VEC2"
    },
    {
      "bufferView": 1,
      "byteOffset": 378416,
      "componentType": 5126,
      "count": 23651,
      "max": [
        0.9959574341773987,
        0.9892908334732056
      ],
      "min": [
        0.007985562086105347,
        0.0074214935302734375
      ],
      "type": "VEC2"
    },
    {
      "bufferView": 1,
      "byteOffset": 567624,
      "componentType": 5126,
      "count": 23651,
      "max": [
        0.9959574341773987,
        0.9892908334732056
      ],
      "min": [
        0.007985562086105347,
        0.0074214935302734375
      ],
      "type": "VEC2"
    },
    {
      "bufferView": 0,
      "componentType": 5125,
      "count": 132888,
      "type": "SCALAR"
    }
  ],
  "asset": {
    "extras": {
      "author": "#digitalartworm (https://sketchfab.com/fahycolm)",
      "license": "CC-BY-4.0 (http://creativecommons.org/licenses/by/4.0/)",
      "source": "https://sketchfab.com/3d-models/parasourolophus-dinosaur-5b305091794444b4b24d735c47447f65",
      "title": "PARASOUROLOPHUS - DINOSAUR"
    },
    "generator": "Sketchfab-12.66.0",
    "version": "2.0"
  },
  "bufferViews": [
    {
      "buffer": 0,
      "byteLength": 531552,
      "name": "floatBufferViews",
      "target": 34963
    },
    {
      "buffer": 0,
      "byteLength": 756832,
      "byteOffset": 531552,
      "byteStride": 8,
      "name": "floatBufferViews",
      "target": 34962
    },
    {
      "buffer": 0,
      "byteLength": 567624,
      "byteOffset": 1288384,
      "byteStride": 12,
      "name": "floatBufferViews",
      "target": 34962
    },
    {
      "buffer": 0,
      "byteLength": 378416,
      "byteOffset": 1856008,
      "byteStride": 16,
      "name": "floatBufferViews",
      "target": 34962
    }
  ],
  "buffers": [
    {
      "byteLength": 2234424,
      "uri": "scene.bin"
    }
  ],
  "images": [
    {
      "uri": "textures/Material.004_baseColor.png"
    },
    {
      "uri": "textures/Material.004_metallicRoughness.png"
    },
    {
      "uri": "textures/Material.004_normal.png"
    }
  ],
  "materials": [
    {
      "doubleSided": true,
      "name": "Material.004",
      "normalTexture": {
        "index": 2
      },
      "pbrMetallicRoughness": {
        "baseColorTexture": {
          "index": 0
        },
        "metallicFactor": 0.0,
        "metallicRoughnessTexture": {
          "index": 1
        }
      }
    }
  ],
  "meshes": [
    {
      "name": "Object_0",
      "primitives": [
        {
          "attributes": {
            "NORMAL": 1,
            "POSITION": 0,
            "TANGENT": 2,
            "TEXCOORD_0": 3,
            "TEXCOORD_1": 4,
            "TEXCOORD_2": 5,
            "TEXCOORD_3": 6
          },
          "indices": 7,
          "material": 0,
          "mode": 4
        }
      ]
    }
  ],
  "nodes": [
    {
      "children": [
        1
      ],
      "matrix": [
        1.9834564924240112,
        0.0,
        0.0,
        0.0,
        0.0,
        4.4041581324627793e-16,
        -1.9834564924240112,
        0.0,
        0.0,
        1.9834564924240112,
        4.4041581324627793e-16,
        0.0,
        0.0,
        0.0,
        0.0,
        1.0
      ],
      "name": "Sketchfab_model"
    },
    {
      "children": [
        2
      ],
      "name": "root"
    },
    {
      "children": [
        3
      ],
      "matrix": [
        1.0,
        0.0,
        0.0,
        0.0,
        0.0,
        2.220446049250313e-16,
        1.0,
        0.0,
        0.0,
        -1.0,
        2.220446049250313e-16,
        0.0,
        0.0,
        0.0,
        0.0,
        1.0
      ],
      "name": "GLTF_SceneRootNode"
    },
    {
      "children": [
        4
      ],
      "matrix": [
        1.0,
        0.0,
        0.0,
        0.0,
        0.0,
        1.0,
        0.0,
        0.0,
        0.0,
        0.0,
        1.0,
        0.0,
        0.0,
        0.0,
        0.03188930079340935,
        1.0
      ],
      "name": "Retopo_Cube_0"
    },
    {
      "mesh": 0,
      "name": "Object_4"
    }
  ],
  "samplers": [
    {
      "magFilter": 9729,
      "minFilter": 9987,
      "wrapS": 10497,
      "wrapT": 10497
    }
  ],
  "scene": 0,
  "scenes": [
    {
      "name": "Sketchfab_Scene",
      "nodes": [
        0
      ]
    }
  ],
  "textures": [
    {
      "sampler": 0,
      "source": 0
    },
    {
      "sampler": 0,
      "source": 1
    },
    {
      "sampler": 0,
      "source": 2
    }
  ]
}
