{
  "accessors": [
    {
      "bufferView": 2,
      "componentType": 5126,
      "count": 49680,
      "max": [
        1.4526774883270264,
        2.895338773727417,
        5.20103120803833
      ],
      "min": [
        -1.7421092987060547,
        -2.79807710647583,
        -5.700862884521484
      ],
      "type": "VEC3"
    },
    {
      "bufferView": 2,
      "byteOffset": 596160,
      "componentType": 5126,
      "count": 49680,
      "max": [
        0.999995768070221,
        0.9999839067459106,
        0.999938428401947
      ],
      "min": [
        -0.9999396204948425,
        -0.9999766945838928,
        -0.9999731183052063
      ],
      "type": "VEC3"
    },
    {
      "bufferView": 3,
      "componentType": 5126,
      "count": 49680,
      "max": [
        0.9999932050704956,
        0.9997591972351074,
        0.9998906850814819,
        1.0
      ],
      "min": [
        -1.0,
        -0.9999987483024597,
        -0.999988853931427,
        -1.0
      ],
      "type": "VEC4"
    },
    {
      "bufferView": 3,
      "byteOffset": 794880,
      "componentType": 5126,
      "count": 49680,
      "max": [
        0.729411780834198,
        0.7921568751335144,
        0.8588235378265381,
        1.0
      ],
      "min": [
        0.15294118225574493,
        0.16078431904315948,
        0.1882352977991104,
        1.0
      ],
      "type": "VEC4"
    },
    {
      "bufferView": 1,
      "componentType": 5126,
      "count": 49680,
      "max": [
        0.9643310308456421,
        0.998046875
      ],
      "min": [
        0.001953125,
        0.0019531487487256527
      ],
      "type": "VEC2"
    },
    {
      "bufferView": 0,
      "componentType": 5125,
      "count": 286104,
      "type": "SCALAR"
    },
    {
      "bufferView": 2,
      "byteOffset": 1192320,
      "componentType": 5126,
      "count": 9532,
      "max": [
        0.1092711091041565,
        -0.24331407248973846,
        3.8925485610961914
      ],
      "min": [
        -1.5630545616149902,
        -0.8510782718658447,
        3.233703136444092
      ],
      "type": "VEC3"
    },
    {
      "bufferView": 2,
      "byteOffset": 1306704,
      "componentType": 5126,
      "count": 9532,
      "max": [
        0.9996856451034546,
        0.9996154308319092,
        0.9998970031738281
      ],
      "min": [
        -0.9994869232177734,
        -0.999984860420227,
        -0.9997472167015076
      ],
      "type": "VEC3"
    },
    {
      "bufferView": 3,
      "byteOffset": 1589760,
      "componentType": 5126,
      "count": 9532,
      "max": [
        0.9993600249290466,
        0.9997730851173401,
        0.9999263286590576,
        1.0
      ],
      "min": [
        -0.9999838471412659,
        -0.9998130202293396,
        -0.9999293684959412,
        1.0
      ],
      "type": "VEC4"
    },
    {
      "bufferView": 3,
      "byteOffset": 1742272,
      "componentType": 5126,
      "count": 9532,
      "max": [
        1.0,
        1.0,
        1.0,
        1.0
      ],
      "min": [
        1.0,
        1.0,
        1.0,
        1.0
      ],
      "type": "VEC4"
    },
    {
      "bufferView": 1,
      "byteOffset": 397440,
      "componentType": 5126,
      "count": 9532,
      "max": [
        0.9577271342277527,
        0.9980468153953552
      ],
      "min": [
        0.001953116967342794,
        0.001953134313225746
      ],
      "type": "VEC2"
    },
    {
      "bufferView": 0,
      "byteOffset": 1144416,
      "componentType": 5125,
      "count": 55296,
      "type": "SCALAR"
    },
    {
      "bufferView": 2,
      "byteOffset": 1421088,
      "componentType": 5126,
      "count": 65532,
      "max": [
        -0.7999922037124634,
        1.600260615348816,
        5.077635765075684
      ],
      "min": [
        -1.6237263679504395,
        0.8418319821357727,
        4.130207061767578
      ],
      "type": "VEC3"
    },
    {
      "bufferView": 2,
      "byteOffset": 2207472,
      "componentType": 5126,
      "count": 65532,
      "max": [
        0.9999991059303284,
        0.999895453453064,
        0.9999791979789734
      ],
      "min": [
        -0.9999979734420776,
        -0.9999077320098877,
        -0.9999899864196777
      ],
      "type": "VEC3"
    },
    {
      "bufferView": 3,
      "byteOffset": 1894784,
      "componentType": 5126,
      "count": 65532,
      "max": [
        0.9999700784683228,
        0.9999980926513672,
        0.9999929070472717,
        1.0
      ],
      "min": [
        -0.9999820590019226,
        -0.9999762177467346,
        -0.9999880790710449,
        1.0
      ],
      "type": "VEC4"
    },
    {
      "bufferView": 3,
      "byteOffset": 2943296,
      "componentType": 5126,
      "count": 65532,
      "max": [
        1.0,
        1.0,
        1.0,
        1.0
      ],
      "min": [
        1.0,
        1.0,
        1.0,
        1.0
      ],
      "type": "VEC4"
    },
    {
      "bufferView": 1,
      "byteOffset": 473696,
      "componentType": 5126,
      "count": 65532,
      "max": [
        0.9980468153953552,
        0.9964100122451782
      ],
      "min": [
        0.0019531245343387127,
        0.0019531245343387127
      ],
      "type": "VEC2"
    },
    {
      "bufferView": 0,
      "byteOffset": 1365600,
      "componentType": 5125,
      "count": 380925,
      "type": "SCALAR"
    },
    {
      "bufferView": 2,
      "byteOffset": 2993856,
      "componentType": 5126,
      "count": 36051,
      "max": [
        -0.9069532155990601,
        1.5879523754119873,
        4.873336315155029
      ],
      "min": [
        -1.5587787628173828,
        1.021287202835083,
        4.1905388832092285
      ],
      "type": "VEC3"
    },
    {
      "bufferView": 2,
      "byteOffset": 3426468,
      "componentType": 5126,
      "count": 36051,
      "max": [
        0.9998195767402649,
        0.9999479055404663,
        0.9999514818191528
      ],
      "min": [
        -0.9999979734420776,
        -0.9997685551643372,
        -0.9998008012771606
      ],
      "type": "VEC3"
    },
    {
      "bufferView": 3,
      "byteOffset": 3991808,
      "componentType": 5126,
      "count": 36051,
      "max": [
        0.9999685287475586,
        0.9999241232872009,
        0.9998358488082886,
        1.0
      ],
      "min": [
        -0.9999998211860657,
        -0.999973475933075,
        -0.999907910823822,
        -1.0
      ],
      "type": "VEC4"
    },
    {
      "bufferView": 3,
      "byteOffset": 4568624,
      "componentType": 5126,
      "count": 36051,
      "max": [
        1.0,
        1.0,
        1.0,
        1.0
      ],
      "min": [
        1.0,
        1.0,
        1.0,
        1.0
      ],
      "type": "VEC4"
    },
    {
      "bufferView": 1,
      "byteOffset": 997952,
      "componentType": 5126,
      "count": 36051,
      "max": [
        0.9896731972694397,
        0.9970527291297913
      ],
      "min": [
        0.020483940839767456,
        0.0029713783878833055
      ],
      "type": "VEC2"
    },
    {
      "bufferView": 0,
      "byteOffset": 2889300,
      "componentType": 5125,
      "count": 208899,
      "type": "SCALAR"
    },
    {
      "bufferView": 2,
      "byteOffset": 3859080,
      "componentType": 5126,
      "count": 9441,
      "max": [
        1.4615209102630615,
        -2.5397791862487793,
        1.612141728401184
      ],
      "min": [
        -1.4611012935638428,
        -2.77470064163208,
        -0.5383512377738953
      ],
      "type": "VEC3"
    },
    {
      "bufferView": 2,
      "byteOffset": 3972372,
      "componentType": 5126,
      "count": 9441,
      "max": [
        0.9999960064888,
        0.9999917149543762,
        0.9901512861251831
      ],
      "min": [
        -0.9999959468841553,
        -0.9999645948410034,
        -0.9999650716781616
      ],
      "type": "VEC3"
    },
    {
      "bufferView": 3,
      "byteOffset": 5145440,
      "componentType": 5126,
      "count": 9441,
      "max": [
        0.999911367893219,
        0.9996731281280518,
        0.9999698996543884,
        1.0
      ],
      "min": [
        -0.999885082244873,
        -0.9998881816864014,
        -0.9999626278877258,
        -1.0
      ],
      "type": "VEC4"
    },
    {
      "bufferView": 1,
      "byteOffset": 1286360,
      "componentType": 5126,
      "count": 9441,
      "max": [
        0.998046875,
        0.9936462044715881
      ],
      "min": [
        0.001953125698491931,
        0.0019531510770320892
      ],
      "type": "VEC2"
    },
    {
      "bufferView": 0,
      "byteOffset": 3724896,
      "componentType": 5125,
      "count": 55296,
      "type": "SCALAR"
    },
    {
      "bufferView": 2,
      "byteOffset": 4085664,
      "componentType": 5126,
      "count": 1283,
      "max": [
        -0.8145093321800232,
        1.564161777496338,
        4.915071964263916
      ],
      "min": [
        -1.5190198421478271,
        1.0165141820907593,
        3.8146355152130127
      ],
      "type": "VEC3"
    },
    {
      "bufferView": 2,
      "byteOffset": 4101060,
      "componentType": 5126,
      "count": 1283,
      "max": [
        0.9938546419143677,
        0.9992244243621826,
        0.9567061066627502
      ],
      "min": [
        -0.9962965250015259,
        -0.9991530179977417,
        -0.9971210956573486
      ],
      "type": "VEC3"
    },
    {
      "bufferView": 3,
      "byteOffset": 5296496,
      "componentType": 5126,
      "count": 1283,
      "max": [
        0.9993219971656799,
        0.9811398983001709,
        0.9227131009101868,
        1.0
      ],
      "min": [
        -0.9655643105506897,
        -0.9956681132316589,
        -0.9996979236602783,
        1.0
      ],
      "type": "VEC4"
    },
    {
      "bufferView": 1,
      "byteOffset": 1361888,
      "componentType": 5126,
      "count": 1283,
      "max": [
        0.973198652267456,
        0.998046875
      ],
      "min": [
        0.001953128958120942,
        0.0019531287252902985
      ],
      "type": "VEC2"
    },
    {
      "bufferView": 0,
      "byteOffset": 3946080,
      "componentType": 5125,
      "count": 7446,
      "type": "SCALAR"
    },
    {
      "bufferView": 2,
      "byteOffset": 4116456,
      "componentType": 5126,
      "count": 17036,
      "max": [
        -0.7494282722473145,
        2.1889894008636475,
        4.618068695068359
      ],
      "min": [
        -1.484659194946289,
        1.8923871517181396,
        4.113505840301514
      ],
      "type": "VEC3"
    },
    {
      "bufferView": 2,
      "byteOffset": 4320888,
      "componentType": 5126,
      "count": 17036,
      "max": [
        0.9997390508651733,
        0.9999865293502808,
        0.999711275100708
      ],
      "min": [
        -0.9997384548187256,
        -0.9999867677688599,
        -0.9997128844261169
      ],
      "type": "VEC3"
    },
    {
      "bufferView": 3,
      "byteOffset": 5317024,
      "componentType": 5126,
      "count": 17036,
      "max": [
        1.0,
        0.999999463558197,
        0.9999998807907104,
        1.0
      ],
      "min": [
        -0.8748741745948792,
        -0.999999463558197,
        -0.9999998211860657,
        1.0
      ],
      "type": "VEC4"
    },
    {
      "bufferView": 1,
      "byteOffset": 1372152,
      "componentType": 5126,
      "count": 17036,
      "max": [
        0.9980080127716064,
        0.9465046525001526
      ],
      "min": [
        0.00199203216470778,
        0.0018892309162765741
      ],
      "type": "VEC2"
    },
    {
      "bufferView": 0,
      "byteOffset": 3975864,
      "componentType": 5125,
      "count": 96768,
      "type": "SCALAR"
    }
  ],
  "asset": {
    "extras": {
      "author": "tolnaydavid (https://sketchfab.com/tolnaydavid)",
      "license": "CC-BY-4.0 (http://creativecommons.org/licenses/by/4.0/)",
      "source": "https://sketchfab.com/3d-models/dinosaur-2a63f75f069e4fd896f4a7046f5e4eb9",
      "title": "Dinosaur"
    },
    "generator": "Sketchfab-12.66.0",
    "version": "2.0"
  },
  "bufferViews": [
    {
      "buffer": 0,
      "byteLength": 4362936,
      "name": "floatBufferViews",
      "target": 34963
    },
    {
      "buffer": 0,
      "byteLength": 1508440,
      "byteOffset": 4362936,
      "byteStride": 8,
      "name": "floatBufferViews",
      "target": 34962
    },
    {
      "buffer": 0,
      "byteLength": 4525320,
      "byteOffset": 5871376,
      "byteStride": 12,
      "name": "floatBufferViews",
      "target": 34962
    },
    {
      "buffer": 0,
      "byteLength": 5589600,
      "byteOffset": 10396696,
      "byteStride": 16,
      "name": "floatBufferViews",
      "target": 34962
    }
  ],
  "buffers": [
    {
      "byteLength": 15986296,
      "uri": "scene.bin"
    }
  ],
  "images": [
    {
      "uri": "textures/Body_baseColor.jpeg"
    },
    {
      "uri": "textures/Body_metallicRoughness.png"
    },
    {
      "uri": "textures/Body_normal.jpeg"
    },
    {
      "uri": "textures/Hand_claws1_baseColor.jpeg"
    },
    {
      "uri": "textures/Hand_claws1_metallicRoughness.png"
    },
    {
      "uri": "textures/Hand_claws1_normal.png"
    },
    {
      "uri": "textures/Teeth1_baseColor.jpeg"
    },
    {
      "uri": "textures/Teeth1_metallicRoughness.png"
    },
    {
      "uri": "textures/Teeth1_normal.png"
    },
    {
      "uri": "textures/Leg_claws1_baseColor.jpeg"
    },
    {
      "uri": "textures/Leg_claws1_metallicRoughness.png"
    },
    {
      "uri": "textures/Leg_claws1_normal.png"
    },
    {
      "uri": "textures/Tongue1_baseColor.jpeg"
    },
    {
      "uri": "textures/Tongue1_metallicRoughness.png"
    },
    {
      "uri": "textures/Tongue1_normal.png"
    },
    {
      "uri": "textures/Eyes1_baseColor.jpeg"
    },
    {
      "uri": "textures/Eyes1_metallicRoughness.png"
    },
    {
      "uri": "textures/Eyes1_normal.png"
    }
  ],
  "materials": [
    {
      "doubleSided": true,
      "name": "Body",
      "normalTexture": {
        "index": 2
      },
      "pbrMetallicRoughness": {
        "baseColorTexture": {
          "index": 0
        },
        "metallicRoughnessTexture": {
          "index": 1
        },
        "roughnessFactor": 0.8382600028559847
      }
    },
    {
      "doubleSided": true,
      "name": "Hand_claws1",
      "normalTexture": {
        "index": 5
      },
      "occlusionTexture": {
        "index": 4
      },
      "pbrMetallicRoughness": {
        "baseColorTexture": {
          "index": 3
        },
        "metallicFactor": 0.0,
        "metallicRoughnessTexture": {
          "index": 4
        }
      }
    },
    {
      "doubleSided": true,
      "name": "Teeth1",
      "normalTexture": {
        "index": 8
      },
      "occlusionTexture": {
        "index": 7
      },
      "pbrMetallicRoughness": {
        "baseColorTexture": {
          "index": 6
        },
        "metallicFactor": 0.0,
        "metallicRoughnessTexture": {
          "index": 7
        }
      }
    },
    {
      "doubleSided": true,
      "name": "Leg_claws1",
      "normalTexture": {
        "index": 11
      },
      "occlusionTexture": {
        "index": 10
      },
      "pbrMetallicRoughness": {
        "baseColorTexture": {
          "index": 9
        },
        "metallicFactor": 0.0,
        "metallicRoughnessTexture": {
          "index": 10
        }
      }
    },
    {
      "doubleSided": true,
      "name": "Tongue1",
      "normalTexture": {
        "index": 14
      },
      "occlusionTexture": {
        "index": 13
      },
      "pbrMetallicRoughness": {
        "baseColorTexture": {
          "index": 12
        },
        "metallicRoughnessTexture": {
          "index": 13
        }
      }
    },
    {
      "doubleSided": true,
      "name": "Eyes1",
      "normalTexture": {
        "index": 17
      },
      "occlusionTexture": {
        "index": 16
      },
      "pbrMetallicRoughness": {
        "baseColorTexture": {
          "index": 15
        },
        "metallicRoughnessTexture": {
          "index": 16
        }
      }
    }
  ],
  "meshes": [
    {
      "name": "Body_low_Body_0",
      "primitives": [
        {
          "attributes": {
            "COLOR_0": 3,
            "NORMAL": 1,
            "POSITION": 0,
            "TANGENT": 2,
            "TEXCOORD_0": 4
          },
          "indices": 5,
          "material": 0,
          "mode": 4
        }
      ]
    },
    {
      "name": "Hand_claws_Hand_claws1_0",
      "primitives": [
        {
          "attributes": {
            "COLOR_0": 9,
            "NORMAL": 7,
            "POSITION": 6,
            "TANGENT": 8,
            "TEXCOORD_0": 10
          },
          "indices": 11,
          "material": 1,
          "mode": 4
        }
      ]
    },
    {
      "name": "Teeth_Teeth1_0",
      "primitives": [
        {
          "attributes": {
            "COLOR_0": 15,
            "NORMAL": 13,
            "POSITION": 12,
            "TANGENT": 14,
            "TEXCOORD_0": 16
          },
          "indices": 17,
          "material": 2,
          "mode": 4
        }
      ]
    },
    {
      "name": "Teeth_Teeth1_0",
      "primitives": [
        {
          "attributes": {
            "COLOR_0": 21,
            "NORMAL": 19,
            "POSITION": 18,
            "TANGENT": 20,
            "TEXCOORD_0": 22
          },
          "indices": 23,
          "material": 2,
          "mode": 4
        }
      ]
    },
    {
      "name": "Leg_claws_Leg_claws1_0",
      "primitives": [
        {
          "attributes": {
            "NORMAL": 25,
            "POSITION": 24,
            "TANGENT": 26,
            "TEXCOORD_0": 27
          },
          "indices": 28,
          "material": 3,
          "mode": 4
        }
      ]
    },
    {
      "name": "Tongue_Tongue1_0",
      "primitives": [
        {
          "attributes": {
            "NORMAL": 30,
            "POSITION": 29,
            "TANGENT": 31,
            "TEXCOORD_0": 32
          },
          "indices": 33,
          "material": 4,
          "mode": 4
        }
      ]
    },
    {
      "name": "Eyes_Eyes1_0",
      "primitives": [
        {
          "attributes": {
            "NORMAL": 35,
            "POSITION": 34,
            "TANGENT": 36,
            "TEXCOORD_0": 37
          },
          "indices": 38,
          "material": 5,
          "mode": 4
        }
      ]
    }
  ],
  "nodes": [
    {
      "children": [
        1
      ],
      "matrix": [
        1.1007922887802124,
        0.0,
        0.0,
        0.0,
        0.0,
        2.4442498886672324e-16,
        -1.1007922887802124,
        0.0,
        0.0,
        1.1007922887802124,
        2.4442498886672324e-16,
        0.0,
        0.0,
        0.0,
        0.0,
        1.0
      ],
      "name": "Sketchfab_model"
    },
    {
      "children": [
        2
      ],
      "matrix": [
        1.0,
        0.0,
        0.0,
        0.0,
        0.0,
        0.0,
        1.0,
        0.0,
        0.0,
        -1.0,
        0.0,
        0.0,
        0.0,
        0.0,
        0.0,
        1.0
      ],
      "name": "dinosaur_low.fbx"
    },
    {
      "children": [
        3,
        5,
        7,
        10,
        12,
        14
      ],
      "name": "RootNode"
    },
    {
      "children": [
        4
      ],
      "name": "Body_low"
    },
    {
      "mesh": 0,
      "name": "Body_low_Body_0"
    },
    {
      "children": [
        6
      ],
      "name": "Hand_claws"
    },
    {
      "mesh": 1,
      "name": "Hand_claws_Hand_claws1_0"
    },
    {
      "children": [
        8,
        9
      ],
      "name": "Teeth"
    },
    {
      "mesh": 2,
      "name": "Teeth_Teeth1_0"
    },
    {
      "mesh": 3,
      "name": "Teeth_Teeth1_0"
    },
    {
      "children": [
        11
      ],
      "name": "Leg_claws"
    },
    {
      "mesh": 4,
      "name": "Leg_claws_Leg_claws1_0"
    },
    {
      "children": [
        13
      ],
      "name": "Tongue"
    },
    {
      "mesh": 5,
      "name": "Tongue_Tongue1_0"
    },
    {
      "children": [
        15
      ],
      "name": "Eyes"
    },
    {
      "mesh": 6,
      "name": "Eyes_Eyes1_0"
    }
  ],
  "samplers": [
    {
      "magFilter": 9729,
      "minFilter": 9987,
      "wrapS": 10497,
      "wrapT": 10497
    }
  ],
  "scene": 0,
  "scenes": [
    {
      "name": "Sketchfab_Scene",
      "nodes": [
        0
      ]
    }
  ],
  "textures": [
    {
      "sampler": 0,
      "source": 0
    },
    {
      "sampler": 0,
      "source": 1
    },
    {
      "sampler": 0,
      "source": 2
    },
    {
      "sampler": 0,
      "source": 3
    },
    {
      "sampler": 0,
      "source": 4
    },
    {
      "sampler": 0,
      "source": 5
    },
    {
      "sampler": 0,
      "source": 6
    },
    {
      "sampler": 0,
      "source": 7
    },
    {
      "sampler": 0,
      "source": 8
    },
    {
      "sampler": 0,
      "source": 9
    },
    {
      "sampler": 0,
      "source": 10
    },
    {
      "sampler": 0,
      "source": 11
    },
    {
      "sampler": 0,
      "source": 12
    },
    {
      "sampler": 0,
      "source": 13
    },
    {
      "sampler": 0,
      "source": 14
    },
    {
      "sampler": 0,
      "source": 15
    },
    {
      "sampler": 0,
      "source": 16
    },
    {
      "sampler": 0,
      "source": 17
    }
  ]
}
